<?xml version="1.0" standalone="no"?>
<!DOCTYPE svg PUBLIC "-//W3C//DTD SVG 20010904//EN"
 "http://www.w3.org/TR/2001/REC-SVG-20010904/DTD/svg10.dtd">
<svg version="1.0" xmlns="http://www.w3.org/2000/svg"
 width="504.000000pt" height="258.000000pt" viewBox="0 0 504.000000 258.000000"
 preserveAspectRatio="xMidYMid meet">
<metadata>
Created by potrace 1.15, written by Peter Selinger 2001-2017
</metadata>
<g transform="translate(0.000000,258.000000) scale(0.100000,-0.100000)"
fill="#000000" stroke="none">
<path d="M1545 2471 c-383 -108 -861 -437 -1142 -785 -238 -296 -343 -562
-322 -817 4 -41 14 -91 23 -110 26 -56 84 -107 160 -143 138 -65 163 -69 564
-73 274 -4 362 -8 362 -17 0 -6 13 -101 29 -210 28 -188 40 -232 55 -207 4 5
43 160 86 342 44 183 82 334 83 336 3 2 39 -255 53 -379 8 -66 26 -77 43 -25
7 17 26 75 44 127 17 52 36 95 40 95 5 0 18 -25 30 -55 l22 -55 323 -3 c213
-1 322 1 322 8 0 6 -107 10 -309 10 l-308 0 -34 83 c-20 46 -40 82 -48 82 -9
0 -26 -38 -46 -101 -44 -137 -51 -148 -58 -93 -3 24 -15 124 -28 221 -22 179
-30 211 -47 193 -5 -6 -32 -107 -60 -225 -28 -118 -63 -268 -79 -333 -15 -64
-30 -117 -33 -117 -4 0 -17 73 -29 163 -12 89 -26 165 -29 169 -4 3 -149 9
-322 13 -173 3 -351 11 -395 16 -231 28 -360 132 -379 304 -13 122 24 273 113
460 201 422 661 838 1146 1038 260 107 416 114 461 20 39 -83 -14 -269 -161
-568 -148 -300 -213 -413 -311 -540 -109 -142 -204 -303 -204 -345 0 -16 5
-21 23 -18 24 3 157 194 282 405 76 127 245 332 387 469 92 89 217 189 225
180 13 -12 -34 -122 -168 -393 -82 -166 -149 -304 -149 -307 0 -3 -18 -43 -40
-88 -40 -81 -47 -118 -23 -125 6 -3 24 15 40 39 15 24 62 90 103 148 41 58 87
123 102 146 154 225 544 611 625 617 27 2 28 0 25 -38 -3 -42 -71 -189 -143
-310 -23 -38 -60 -101 -82 -140 -43 -75 -130 -214 -144 -230 -35 -42 -124
-198 -117 -205 26 -26 151 153 359 515 158 277 189 361 156 423 -32 61 -130
-2 -372 -240 -106 -104 -342 -382 -377 -445 -6 -10 -13 -15 -16 -12 -6 6 33
95 151 339 119 246 140 340 79 340 -41 0 -120 -63 -289 -232 -93 -92 -167
-164 -165 -160 2 4 37 77 79 162 131 266 187 442 174 550 -15 117 -57 151
-191 149 -50 -1 -115 -9 -149 -18z"/>
<path d="M2782 1901 c-27 -27 -85 -94 -128 -148 -43 -54 -82 -99 -86 -101 -4
-2 -8 -10 -8 -17 0 -7 -4 -15 -8 -17 -13 -5 -145 -209 -166 -255 -20 -45 -16
-73 10 -73 9 0 44 22 79 50 63 50 176 110 208 110 10 0 17 -8 17 -19 0 -14
-26 -33 -97 -71 -116 -62 -244 -144 -296 -189 -45 -40 -53 -90 -14 -92 47 -3
65 3 157 48 79 39 109 62 182 135 48 48 90 98 94 112 4 17 22 33 57 51 29 14
41 23 27 20 -70 -18 -73 -18 -66 -6 5 7 0 21 -10 32 -15 16 -26 19 -54 14 -47
-9 -159 -68 -210 -112 -22 -19 -44 -33 -47 -29 -12 11 61 104 115 148 135 107
340 359 345 423 2 26 -2 30 -25 33 -21 3 -37 -8 -76 -47z m-22 -120 c0 -14
-133 -182 -184 -231 -55 -53 -60 -44 -9 19 53 66 186 221 190 221 2 0 3 -4 3
-9z m-80 -420 c0 -4 -24 -33 -53 -64 -49 -50 -124 -105 -204 -149 -37 -20
-113 -39 -113 -29 0 4 16 21 36 37 20 16 41 34 48 39 19 17 140 101 156 108 8
4 38 21 65 37 53 31 65 35 65 21z"/>
<path d="M1680 954 c0 -3 7 -13 16 -21 22 -23 10 -201 -15 -220 -13 -10 -8
-12 34 -13 48 0 49 1 27 16 -20 14 -22 23 -22 110 0 56 4 94 10 94 6 0 10 -6
10 -12 0 -17 74 -198 80 -198 3 0 26 48 50 108 l45 107 3 -99 c2 -85 0 -100
-15 -112 -16 -12 -11 -13 42 -13 46 0 56 2 43 10 -15 8 -18 26 -18 116 0 89 3
108 18 119 15 13 11 14 -31 12 l-49 -3 -33 -83 c-18 -46 -35 -85 -38 -88 -2
-3 -19 36 -37 86 l-32 90 -44 0 c-24 0 -44 -3 -44 -6z"/>
<path d="M2398 943 c40 -34 82 -127 82 -181 0 -40 -4 -52 -17 -55 -10 -3 9 -5
42 -6 45 0 56 2 43 10 -32 18 -23 88 19 160 20 34 45 64 55 67 35 9 17 22 -29
22 -43 -1 -46 -2 -30 -14 18 -14 18 -16 -2 -53 -38 -72 -38 -72 -65 -13 -18
40 -22 57 -14 67 8 10 -1 13 -47 13 -56 0 -57 0 -37 -17z"/>
<path d="M2713 949 c14 -9 17 -26 17 -119 0 -93 -3 -110 -17 -119 -13 -8 5
-10 68 -11 72 0 91 3 113 21 14 11 26 31 26 43 0 24 -33 66 -52 66 -6 0 -2 10
10 23 12 13 22 35 22 50 0 42 -33 57 -125 57 -59 -1 -75 -3 -62 -11z m129 -23
c12 -17 9 -61 -4 -74 -7 -7 -22 -12 -35 -12 -21 0 -23 5 -23 48 0 27 3 52 7
55 9 9 46 -2 55 -17z m-4 -112 c32 -22 31 -80 -3 -96 -37 -17 -55 4 -55 63 0
54 15 63 58 33z"/>
<path d="M3023 949 c15 -9 17 -26 17 -124 0 -100 -2 -114 -17 -118 -10 -3 28
-5 83 -6 l102 -1 6 31 c10 51 7 56 -14 22 -19 -32 -75 -53 -99 -38 -7 4 -11
49 -11 116 0 90 3 109 15 109 8 0 15 5 15 10 0 6 -26 10 -57 10 -44 -1 -54 -3
-40 -11z"/>
<path d="M3333 946 c14 -11 17 -30 17 -119 0 -90 -3 -108 -17 -116 -13 -8 10
-10 85 -11 102 0 103 0 113 26 14 37 5 40 -28 10 -21 -20 -37 -26 -63 -24 -35
3 -35 3 -38 56 -3 48 -1 52 19 52 12 0 28 -8 35 -17 12 -16 13 -13 14 25 0 43
-14 57 -23 22 -3 -12 -14 -20 -26 -20 -19 0 -21 6 -21 60 l0 60 30 0 c20 0 40
-9 56 -25 32 -32 34 -31 34 5 l0 30 -102 0 c-88 -1 -100 -3 -85 -14z"/>
<path d="M3655 936 c-46 -46 -28 -87 58 -130 36 -19 44 -36 31 -70 -13 -35
-94 -7 -94 32 0 7 -4 12 -10 12 -15 0 -12 -66 3 -68 6 0 30 -4 52 -7 32 -6 45
-3 68 15 24 19 28 28 25 64 -3 39 -6 42 -55 66 -54 25 -68 44 -57 74 9 23 61
21 76 -4 18 -28 30 -25 26 7 -3 24 -8 27 -50 30 -40 4 -51 0 -73 -21z"/>
<path d="M3943 948 c-24 -12 -38 -56 -28 -88 3 -11 28 -30 56 -42 53 -24 71
-56 49 -83 -25 -30 -90 -5 -90 33 0 7 -4 12 -10 12 -5 0 -10 -15 -10 -33 0
-24 5 -33 18 -35 9 -1 33 -4 52 -8 27 -4 42 -1 63 16 24 19 28 28 25 64 -3 38
-7 43 -51 67 -61 33 -70 43 -63 67 10 31 45 34 73 6 30 -30 33 -30 33 0 0 16
-7 26 -22 30 -33 8 -70 6 -95 -6z"/>
<path d="M4193 946 c14 -11 17 -30 17 -116 0 -86 -3 -105 -17 -116 -16 -12
-10 -13 42 -13 52 0 58 1 43 13 -15 11 -18 30 -18 120 0 64 4 106 10 106 6 0
10 5 10 10 0 6 -24 10 -52 10 -46 -1 -51 -2 -35 -14z"/>
<path d="M4397 948 c28 -14 33 -37 28 -137 -4 -64 -9 -87 -22 -97 -16 -12 -12
-13 32 -14 48 0 49 1 27 16 -20 14 -22 24 -22 100 0 46 3 84 8 84 4 -1 24 -24
45 -53 46 -64 119 -147 130 -147 4 0 7 46 7 103 0 69 5 111 14 130 l15 27 -42
0 c-37 -1 -40 -2 -25 -14 12 -9 19 -32 22 -81 3 -37 3 -72 0 -77 -3 -5 -38 32
-77 81 l-71 91 -45 -1 c-39 0 -43 -2 -24 -11z"/>
<path d="M4833 944 c-41 -21 -73 -71 -73 -115 0 -95 105 -154 209 -118 26 9
31 16 31 43 0 18 5 37 12 44 9 9 0 12 -42 12 -48 -1 -53 -2 -37 -14 10 -8 17
-26 17 -45 0 -30 -1 -31 -45 -31 -40 0 -47 4 -65 33 -12 19 -20 50 -20 77 0
27 8 58 20 78 17 27 26 32 58 32 39 0 82 -31 82 -58 0 -7 5 -12 11 -12 6 0 9
16 7 37 -3 39 -5 40 -88 49 -30 3 -56 -1 -77 -12z"/>
<path d="M2194 942 c-5 -4 -21 -36 -34 -72 -31 -86 -59 -142 -79 -157 -13 -10
-8 -12 32 -13 26 0 47 5 47 11 0 5 -4 8 -9 4 -17 -10 -23 15 -11 50 11 32 15
35 47 32 30 -2 38 -7 50 -35 11 -26 11 -37 2 -48 -10 -12 -2 -14 47 -14 55 0
57 1 37 15 -14 10 -34 53 -58 125 -35 104 -45 120 -71 102z m25 -114 c1 -14
-7 -18 -30 -18 -28 0 -31 2 -25 25 3 13 11 37 17 52 l11 28 13 -35 c8 -19 14
-43 14 -52z"/>
<path d="M2420 520 c0 -33 4 -60 10 -60 6 0 10 11 10 24 0 18 7 26 23 29 l22
4 -22 2 c-19 1 -23 7 -23 31 0 17 -4 30 -10 30 -6 0 -10 -27 -10 -60z"/>
<path d="M2490 520 c0 -33 4 -60 10 -60 6 0 10 27 10 60 0 33 -4 60 -10 60 -6
0 -10 -27 -10 -60z"/>
<path d="M2580 520 l0 -60 38 1 c30 2 32 3 10 6 -35 5 -39 40 -5 46 l22 4 -22
2 c-18 1 -23 7 -23 27 0 19 4 25 15 21 8 -4 17 -2 20 3 4 6 -7 10 -24 10 l-31
0 0 -60z"/>
<path d="M2726 533 c-18 -54 -21 -91 -4 -55 14 27 48 29 55 2 5 -17 23 -29 23
-15 0 15 -43 115 -50 115 -4 0 -15 -21 -24 -47z m30 -20 c-11 -11 -19 6 -11
24 8 17 8 17 12 0 3 -10 2 -21 -1 -24z"/>
<path d="M2870 520 l0 -60 33 1 c23 1 26 3 10 6 -21 4 -23 10 -23 59 0 30 -4
54 -10 54 -6 0 -10 -27 -10 -60z"/>
<path d="M2983 573 c13 -4 17 -15 17 -59 0 -30 5 -54 10 -54 6 0 10 24 10 54
0 44 4 55 18 59 9 3 -3 5 -28 5 -25 0 -37 -2 -27 -5z"/>
<path d="M3120 520 c0 -33 4 -60 10 -60 6 0 10 11 10 25 0 18 5 25 20 25 15 0
20 -7 20 -25 0 -14 5 -25 10 -25 6 0 10 27 10 60 0 33 -4 60 -10 60 -5 0 -10
-13 -10 -28 0 -21 -5 -28 -20 -28 -15 0 -20 7 -20 28 0 15 -4 28 -10 28 -6 0
-10 -27 -10 -60z"/>
<path d="M3286 558 c-9 -12 -16 -29 -16 -38 0 -27 30 -60 56 -60 33 0 31 18
-3 22 -23 2 -29 8 -31 35 -2 24 2 34 18 43 11 6 25 8 30 5 6 -3 10 -1 10 4 0
20 -49 11 -64 -11z"/>
<path d="M3436 533 c-18 -54 -21 -91 -4 -55 14 27 44 29 53 2 5 -17 25 -29 25
-15 0 15 -43 115 -50 115 -4 0 -15 -21 -24 -47z m34 -9 c0 -8 -4 -14 -10 -14
-5 0 -10 9 -10 21 0 11 5 17 10 14 6 -3 10 -13 10 -21z"/>
<path d="M3580 520 c0 -33 4 -60 10 -60 6 0 10 12 10 26 0 22 2 25 15 14 8 -7
15 -19 15 -26 0 -8 5 -14 10 -14 12 0 13 10 1 29 -6 9 -6 22 0 33 14 26 -6 58
-36 58 -24 0 -25 -3 -25 -60z m50 19 c0 -10 -7 -19 -15 -19 -9 0 -15 9 -15 25
0 18 4 23 15 19 8 -4 15 -15 15 -25z"/>
<path d="M3720 520 l0 -60 38 1 c30 2 32 3 10 6 -35 5 -39 40 -5 46 l22 4 -22
2 c-18 1 -23 7 -23 27 0 19 4 25 15 21 8 -4 17 -2 20 3 4 6 -7 10 -24 10 l-31
0 0 -60z"/>
<path d="M3930 520 l0 -60 38 1 c32 1 33 2 12 8 -22 6 -25 13 -28 59 -4 72
-22 66 -22 -8z"/>
<path d="M4060 520 l0 -60 38 1 c30 2 32 3 10 6 -27 4 -28 7 -28 59 0 30 -4
54 -10 54 -6 0 -10 -27 -10 -60z"/>
<path d="M4195 560 c-25 -28 -13 -88 20 -96 13 -3 30 -4 37 -1 13 5 12 6 -34
21 -12 3 -18 16 -18 35 0 31 23 52 48 44 6 -3 12 0 12 6 0 18 -46 12 -65 -9z"/>
</g>
</svg>
